inDegrees=no
num_controls=7
num_derivatives=13
num_iterations=90
num_multipliers=7
num_parameters=0
num_slacks=7
num_states=26
objective=0.342537
objective_accelerations=0.023086
objective_balance=0.000859
objective_effort=0.017853
objective_height=0.299247
objective_ligament=0.001491
solver_duration=947.511888
status=Solve_Succeeded
success=true
DataType=double
version=3
OpenSimVersion=4.5
endheader
time	/jointset/ground_pelvis/pelvis_tilt/value	/jointset/ground_pelvis/pelvis_tx/value	/jointset/ground_pelvis/pelvis_ty/value	/jointset/hip_r/hip_flexion_r/value	/jointset/hip_r/hip_adduction_r/value	/jointset/hip_r/hip_rotation_r/value	/jointset/back/lumbar_extension/value	/jointset/patellofemoral_r/patellar_flexion_r/value	/jointset/knee_r/knee_flexion_r/value	/jointset/knee_r/knee_adduction_r/value	/jointset/knee_r/knee_rotation_r/value	/jointset/ankle_r/ankle_angle_r/value	/jointset/subtalar_r/subtalar_angle_r/value	/jointset/ground_pelvis/pelvis_tilt/speed	/jointset/ground_pelvis/pelvis_tx/speed	/jointset/ground_pelvis/pelvis_ty/speed	/jointset/hip_r/hip_flexion_r/speed	/jointset/hip_r/hip_adduction_r/speed	/jointset/hip_r/hip_rotation_r/speed	/jointset/back/lumbar_extension/speed	/jointset/patellofemoral_r/patellar_flexion_r/speed	/jointset/knee_r/knee_flexion_r/speed	/jointset/knee_r/knee_adduction_r/speed	/jointset/knee_r/knee_rotation_r/speed	/jointset/ankle_r/ankle_angle_r/speed	/jointset/subtalar_r/subtalar_angle_r/speed	/forceset/tau_hip_flexion_r	/forceset/tau_hip_adduction_r	/forceset/tau_hip_rotation_r	/forceset/tau_knee_flexion_r	/forceset/tau_ankle_angle_r	/forceset/tau_subtalar_angle_r	/forceset/tau_lumbar_extension	lambda_cid13_p0	lambda_cid14_p0	lambda_cid14_p1	lambda_cid14_p2	lambda_cid14_p3	lambda_cid14_p4	lambda_cid14_p5	/jointset/ground_pelvis/pelvis_tilt/accel	/jointset/ground_pelvis/pelvis_tx/accel	/jointset/ground_pelvis/pelvis_ty/accel	/jointset/hip_r/hip_flexion_r/accel	/jointset/hip_r/hip_adduction_r/accel	/jointset/hip_r/hip_rotation_r/accel	/jointset/back/lumbar_extension/accel	/jointset/patellofemoral_r/patellar_flexion_r/accel	/jointset/knee_r/knee_flexion_r/accel	/jointset/knee_r/knee_adduction_r/accel	/jointset/knee_r/knee_rotation_r/accel	/jointset/ankle_r/ankle_angle_r/accel	/jointset/subtalar_r/subtalar_angle_r/accel	gamma_cid13_p0	gamma_cid14_p0	gamma_cid14_p1	gamma_cid14_p2	gamma_cid14_p3	gamma_cid14_p4	gamma_cid14_p5
0.5	-0.03597530768795381	0.07783741910929287	0.8654039657669689	0.5826735458539118	-0.2243426254829905	-0.1529266828456546	-0.6110812211541441	0.7457770337642795	0.7457770337642016	-0.00185322361129148	0.1745256705804052	0.2806916496993554	0.1314750660986643	-0.07835178160605076	-0.1201876208618525	-0.2641842590348628	1.045115503143569	0.004012411612463196	0.1382895595923107	-0.7507643467220395	1.390764927079379	1.390764927079393	-0.3710495701271782	2.671820242061025e-05	0.5195805086618934	0.2059179329528717	-0.130092466773674	0.01704176235279369	0.01641227798620519	-0.2478525473194149	-0.04114975181168851	-0.009830248493858414	0.1962080575181445	-19.02284200134277	-56.74059961738106	-11.30976443602327	-1.081059254577727	1.501477231334174	-649.4752422478821	55.2517553934549	0.04085628300868008	0.277427321932	-0.237634250810046	-0.7631527139599648	-0.1661091801462736	-0.5196972194249231	1.211807129782251	-0.9286720292235389	-0.9286720292235787	0.3117489169429542	-0.01011676324675174	-0.3138959360296599	-0.1598953904801479	-4.445792184993352e-08	-3.100063473847823e-09	5.379228062813091e-07	-6.447903291263664e-08	-6.028873710571253e-08	-1.569315146452224e-08	3.624722981765414e-07
0.51	-0.03675672297544819	0.07664953277427879	0.8627507814134902	0.5930851843223073	-0.2243109730767262	-0.1515702667629638	-0.6185272086943504	0.7596362748995895	0.7596362748995831	-0.005547710535539948	0.1745261044583074	0.2858709426110495	0.1335256320523624	-0.07791394859274052	-0.1173777922680305	-0.2663958233922818	1.037066303067284	0.002318900075563697	0.132998203604656	-0.7383381148138639	1.380890805971079	1.380890805971083	-0.3678096816336156	6.037846644447997e-05	0.5162050388106699	0.204160625627708	-0.1342379479721619	0.01859859898677313	0.01642444190657442	-0.250633916329373	-0.04348639519851231	-0.009263543335713668	0.2004079404470195	-18.36886811438894	-57.63494340542696	-11.32535948786099	-0.9584984824912155	1.759359652508472	-652.0664391267086	55.14739295542448	0.04784442539776582	0.2845271920290152	-0.2044027909256829	-0.8476876332385733	-0.1708229777152784	-0.5332167513036885	1.272288197140863	-1.045647559061253	-1.045647559062737	0.3358962474232724	0.01015148723926849	-0.3603455943090274	-0.1887731967032449	-4.137961689853174e-08	-4.117544237796979e-09	4.760137020224155e-07	-1.200212715931375e-07	-5.311924953370086e-08	-1.87118149633464e-08	3.529628325429022e-07
0.52	-0.03753324040982801	0.07549009803798729	0.8600771843638937	0.6034119539941847	-0.2242962259532819	-0.150266636632723	-0.6258460825203138	0.773391001742332	0.7733910017423948	-0.009208641088479776	0.1745268837520503	0.2910142862073032	0.1355575999741752	-0.07737221098320859	-0.1144973011173381	-0.2682667982584142	1.028141743839967	0.0006313550485248356	0.1277323691022834	-0.7253416038734626	1.369862068565657	1.369862068565651	-0.3643382958656383	9.58013709614379e-05	0.5123906455738332	0.2021983265757934	-0.1383834291706512	0.02015543562075186	0.01643660582693372	-0.2534152853393321	-0.04582303858533625	-0.008696838177569889	0.2046078233758934	-17.7124827955777	-58.5331206897435	-11.34219205542221	-0.8350933760591717	2.008060030134407	-654.7140606660964	55.05951501741215	0.06163720225300869	0.2915598333060611	-0.1695163525527184	-0.9382245441663036	-0.1649158781741416	-0.5145929223685152	1.32586293622741	-1.159595288648146	-1.159595288648103	0.3580483718259116	-0.009764235148152792	-0.4016806131523069	-0.2008937358303077	-3.71528521619049e-08	-5.296384682151686e-09	3.958640170846657e-07	-1.747203705052792e-07	-4.409636884832409e-08	-2.112976827796397e-08	3.284900330248155e-07
0.53	-0.0383038694393251	0.07435982714412488	0.8573865890085545	0.6136452108173567	-0.2242983407189306	-0.1490151235864168	-0.633032181962335	0.78702985853729	0.7870298585373052	-0.01283344407395718	0.1745277966136956	0.2961173935345972	0.1375688970063818	-0.07673664793699154	-0.1115442216882982	-0.2697935554820499	1.018366775528058	-0.001051351365349081	0.1225765005862847	-0.7117923201334222	1.357728230449099	1.357728230449087	-0.3605872852188875	8.883765870774184e-05	0.5081675747898442	0.2000310426759419	-0.142296626954769	0.021493034298712	0.01646112817265211	-0.2565233420107976	-0.04768793427909043	-0.008146440699382173	0.2086381231394527	-17.0542609444806	-59.27987142652811	-11.34717221540143	-0.7049211711144416	2.138556665074395	-657.3527031152222	55.0445037901848	0.06705628082672511	0.2990725213196159	-0.1354522881215467	-1.018561132217767	-0.1695128046845299	-0.5151921596128791	1.382355752499941	-1.267430083163902	-1.267430083164869	0.3889204980933234	0.004119886683207756	-0.4421180165209735	-0.2291200643166766	-3.442538622002428e-08	-6.437027248557389e-09	3.372595137633164e-07	-2.208904764269537e-07	-3.738520096453313e-08	-2.250752462132329e-08	3.118665927042037e-07
0.54	-0.03906763475335568	0.0732594651492762	0.8546824867048084	0.6237764323259068	-0.2243171955050567	-0.1478149908939497	-0.6400802096350344	0.8005419465490823	0.8005419465490483	-0.01641967833556801	0.1745286963034083	0.3011763706129515	0.139557626330139	-0.07599946788994828	-0.1085155213145896	-0.2709681879397882	1.007734680915566	-0.002716649046843541	0.1174562983343924	-0.6977272500090788	1.34450831193237	1.344508311932352	-0.3566245510923901	9.316698434217241e-05	0.5035645957859041	0.1976847848859261	-0.1462098247388866	0.02283063297667218	0.01648565051836601	-0.2596313986822635	-0.04955282997284462	-0.007596043221194317	0.2126684229030122	-16.39490951487631	-60.03114602766124	-11.35297196832639	-0.5745867189591494	2.258508561021493	-660.0602099465132	55.05154506108948	0.08196060241825168	0.3066840222398017	-0.09909139937323221	-1.109649804283032	-0.1614341316982455	-0.5074596695472345	1.429020213088015	-1.376811368682201	-1.376811368682271	0.4003930677752429	-0.007505627570546658	-0.477662257142549	-0.236688513863154	-3.335671894467139e-08	-7.53540833297696e-09	3.024922326558573e-07	-2.57624249678324e-07	-3.323167277611373e-08	-2.273442474116285e-08	3.039275497935642e-07
